:SAMPLES-PER-SECOND 30
:FRAME-RANGE 1-1390
:FULLY-SPECIFIED
:DEGREES
565
root  -3.16407 34.9493 38.6468 177.252 39.231 -177.708
RightUpLeg  -90.2013 -14.6609 58.022
RightLeg  124.902 9.02634 -11.1952
RightFoot  -32.3052 -0.398344 -0.964775
RightToes  6.35937e-011 1.2921e-014 -6.02303e-014
Spine  16.2127 -2.00477 6.4737
Spine1  1.53198 2.0633 -6.00918
HEad  28.2091 -14.2915 4.32432
LeftShoulder1  3.32858 -10.3267 -18.0734
LeftArm  51.0813 -28.8257 -72.6577
LeftForeArm  26.6297 -4.21242 -18.0199
LeftHand  -0.00798533 7.31395 1.7774
RightShoulder  2.75034 7.36001 19.4569
RightArm  4.8849 34.2084 94.9242
RightForeArm  118.215 -4.20807 10.1782
RightHand  1.21845 -19.5914 -10.3817
LeftUpLeg  -13.605 -7.47463 -14.5304
LeftLeg  49.7489 3.72629 5.1746
LeftFoot  -28.7584 2.23802 13.4086
LeftToes  4.52251e-011 4.07896e-011 -5.42348e-012
566
root  -2.1338 35.2202 38.6788 176.49 42.7262 -178.964
RightUpLeg  -88.8114 -13.982 57.435
RightLeg  126.944 8.36392 -9.60961
RightFoot  -32.5358 -0.323516 -0.545459
RightToes  6.35937e-011 1.2921e-014 -6.02303e-014
Spine  15.2397 -1.10213 5.34175
Spine1  1.0835 3.15626 -8.06861
HEad  31.4992 -14.0318 5.01497
LeftShoulder1  3.06254 -9.2568 -18.0357
LeftArm  59.7846 -26.3828 -71.3985
LeftForeArm  18.0959 -6.52398 -17.8025
LeftHand  -0.00784383 6.83694 2.13885
RightShoulder  2.85526 7.58033 19.9356
RightArm  3.63178 33.322 95.2192
RightForeArm  120.3 -4.02146 9.59341
RightHand  1.19602 -19.7509 -10.0996
LeftUpLeg  -12.2455 -2.48904 -13.1298
LeftLeg  48.2759 2.33084 3.25667
LeftFoot  -29.5433 2.19874 12.5551
LeftToes  4.52251e-011 4.07896e-011 -5.42348e-012
567
root  -1.05304 36.0332 38.6015 177.199 43.9584 -178.272
RightUpLeg  -88.677 -14.1639 57.7037
RightLeg  127.923 7.24216 -7.97563
RightFoot  -34.2239 -0.293197 -0.29598
RightToes  6.35937e-011 1.2921e-014 -6.02303e-014
Spine  13.7983 -0.96478 4.7836
Spine1  0.419657 3.14527 -8.44105
HEad  34.5181 -14.0379 5.5031
LeftShoulder1  2.98852 -8.58581 -18.8517
LeftArm  61.0004 -24.2575 -69.9462
LeftForeArm  16.651 -6.77064 -17.7861
LeftHand  -0.000976631 6.9626 2.52539
RightShoulder  2.90481 7.65064 20.2419
RightArm  3.2885 31.6387 94.9168
RightForeArm  123.59 -3.92723 9.93194
RightHand  1.41499 -20.4633 -11.2511
LeftUpLeg  -8.99388 -2.79 -11.0719
LeftLeg  43.7049 2.67386 3.15951
LeftFoot  -28.184 1.7181 10.4233
LeftToes  4.52251e-011 4.07896e-011 -5.42348e-012
568
root  0.0677577 37.1926 38.5569 178.81 44.27 -175.839
RightUpLeg  -89.3197 -13.7927 58.5971
RightLeg  127.921 6.86855 -7.54077
RightFoot  -34.3002 -0.170616 0.311397
RightToes  6.35937e-011 1.2921e-014 -6.02303e-014
Spine  12.8983 -0.9219 4.47883
Spine1  -0.344139 2.85371 -7.36385
HEad  36.9747 -14.525 5.92608
LeftShoulder1  3.04029 -8.67231 -19.122
LeftArm  62.4588 -24.0246 -70.4543
LeftForeArm  16.2233 -7.47025 -17.5652
LeftHand  0.00650262 7.11604 2.79389
RightShoulder  2.87626 7.52367 20.2917
RightArm  3.9572 31.2431 94.519
RightForeArm  123.395 -4.05534 10.6956
RightHand  1.39858 -20.7328 -10.9444
LeftUpLeg  -5.10472 -6.27258 -8.23877
LeftLeg  38.5508 4.05828 3.85754
LeftFoot  -24.1891 0.830693 6.0782
LeftToes  4.52251e-011 4.07896e-011 -5.42348e-012
569
root  1.17942 38.4439 38.5795 -179.46 44.3387 -173.169
RightUpLeg  -90.0541 -12.4647 59.3038
RightLeg  127.554 7.06911 -7.88008
RightFoot  -34.0397 -0.0919685 0.697876
RightToes  6.35937e-011 1.2921e-014 -6.02303e-014
Spine  12.4843 -0.804467 4.14742
Spine1  -1.09857 2.66002 -6.0513
HEad  38.496 -15.1418 6.65932
LeftShoulder1  3.12134 -9.25906 -18.5373
LeftArm  60.0304 -24.5768 -71.7398
LeftForeArm  19.1604 -6.99261 -17.6071
LeftHand  -0.00114803 7.0499 2.38561
RightShoulder  2.81219 7.4586 19.823
RightArm  4.10763 32.0508 95.1538
RightForeArm  122.644 -4.04119 10.3907
RightHand  1.08557 -20.2522 -8.9544
LeftUpLeg  -2.73545 -10.853 -5.70206
LeftLeg  35.9396 6.28649 5.25608
LeftFoot  -17.2221 0.102054 -0.0244611
LeftToes  4.52251e-011 4.07896e-011 -5.42348e-012
